<?xml version="1.0" encoding="utf-8"?>
<!-- Generator: Adobe Illustrator 27.9.4, SVG Export Plug-In . SVG Version: 9.03 Build 54784)  -->
<svg version="1.1" id="Ebene_1" xmlns="http://www.w3.org/2000/svg" xmlns:xlink="http://www.w3.org/1999/xlink" x="0px" y="0px"
	 viewBox="0 0 400 400" style="enable-background:new 0 0 400 400;" xml:space="preserve">
<style type="text/css">
	.st0{fill:none;}
	.st1{fill:#FFE650;}
	.st2{fill:url(#Neues_Musterfeld_4);}
	.st3{fill-rule:evenodd;clip-rule:evenodd;fill:url(#Neues_Musterfeld_4);}
</style>
<pattern  y="400" width="48" height="53" patternUnits="userSpaceOnUse" id="Neues_Musterfeld_4" viewBox="0 -53 48 53" style="overflow:visible;">
	<g>
		<rect y="-53" class="st0" width="48" height="53"/>
		<rect y="-53" class="st1" width="48" height="53"/>
	</g>
</pattern>
<path class="st2" d="M162.9,76.8c-50,16.8-86.2,64-86.2,119.7c0,70,56.7,126.7,126.7,126.7c55.7,0,102.9-36.1,119.7-86.2
	c-12.7,4.1-26.3,7-40.5,7c-70,0-126.7-56.7-126.7-126.7C156,103.1,158.5,89.5,162.9,76.8L162.9,76.8z"/>
<path class="st3" d="M232.2,142.3l8.1-2.3l-8.1-2.3l-4.5-12.1l-4.5,12.1l-8.1,2.3l8.1,2.3l4.5,12.1
	C227.7,154.4,232.2,142.3,232.2,142.3z M282.1,116l-4.4-11.6l-4.4,11.6l-8.2,2.7l8.2,2.7l4.4,11.6l4.4-11.6l8.2-2.7
	C290.3,118.8,282.1,116,282.1,116z M275.4,180.3l-4.4-11.6l-4.4,11.6l-8.2,2.7l8.2,2.7l4.4,11.6l4.4-11.6l8.2-2.7L275.4,180.3z
	 M234.7,134.6l-7-19.7l-7,19.7l-16.3,5.4l16.3,5.4l7,19.7l7-19.7L251,140L234.7,134.6z"/>
</svg>
