<?xml version="1.0" encoding="utf-8"?>
<!-- Generator: Adobe Illustrator 27.9.4, SVG Export Plug-In . SVG Version: 9.03 Build 54784)  -->
<svg version="1.1" id="Ebene_1" xmlns="http://www.w3.org/2000/svg" xmlns:xlink="http://www.w3.org/1999/xlink" x="0px" y="0px"
	 viewBox="0 0 400 400" style="enable-background:new 0 0 400 400;" xml:space="preserve">
<style type="text/css">
	.st0{fill:#FFF6B6;}
	.st1{fill:#F7F7F7;}
	.st2{fill:#FFFFFF;}
	.st3{fill:#424242;}
	.st4{fill:none;stroke:#424242;stroke-width:3;stroke-linecap:round;stroke-miterlimit:10;}
	.st5{fill:none;stroke:#424242;stroke-width:2;stroke-linecap:round;stroke-miterlimit:10;}
</style>
<g id="Ebene_2_00000112614549245098900590000010408900349287602054_">
	<path class="st0" d="M274.8,92c-28.2,9.5-48.6,36.1-48.6,67.5c0,39.5,32,71.5,71.5,71.5c31.4,0,58.1-20.4,67.5-48.6
		c-7.1,2.3-14.8,3.9-22.9,3.9c-39.5,0-71.5-32-71.5-71.5C270.9,106.8,272.3,99.1,274.8,92L274.8,92z"/>
</g>
<g>
	<path class="st1" d="M105.6,310.5c-1.5,0-3-0.1-4.5-0.2c-39.3-3.1-70.2-33.4-68.8-67.5c0.6-15.5,7.8-30.5,20.3-42.1
		c11.9-11.2,27.8-18.4,44.8-20.4c0-0.1,0-0.2,0-0.4c0-34.9,33.8-63.3,75.3-63.3c20,0,38.8,6.5,53,18.2
		c13.6,11.3,21.4,26.2,22.3,42.2c47.8,2.4,85,31.3,85,66.6c0,35.8-38.3,65.1-87.2,66.8c-1.4,0.1-2.9,0.1-4.3,0.1H105.6z"/>
	<path class="st2" d="M172.7,119.1c40.2,0,72.5,26.9,72.8,60.3c47.3,1.5,84.9,29.7,84.9,64.2s-37.6,62.7-84.8,64.3
		c-1.4,0.1-2.8,0.1-4.2,0.1H105.6c-1.4,0-2.9-0.1-4.3-0.2c-37.9-3-67.8-32.1-66.5-64.9c1.2-30.5,29-57.1,65.2-60.4
		c-0.1-0.9-0.1-1.8-0.1-2.6C99.9,146.3,132.5,119.1,172.7,119.1 M172.7,114.1c-20.6,0-40,6.7-54.7,19c-14.4,12-22.5,27.9-23.1,45
		c-16.7,2.4-32.2,9.7-44.1,20.8c-12.9,12.1-20.4,27.7-21.1,43.9c-1.4,35.4,30.5,66.9,71.1,70.1c1.5,0.1,3.1,0.2,4.7,0.2h135.8
		c1.4,0,2.9,0,4.5-0.1c50.2-1.7,89.5-32.2,89.5-69.3c0-36.1-37-65.7-85.1-69c-1.5-15.9-9.5-30.6-23-41.8
		C212.7,120.8,193.3,114.1,172.7,114.1L172.7,114.1z"/>
</g>
<polygon class="st3" points="129.1,211.1 120.1,220.1 156.1,229.1 "/>
<polygon class="st3" points="201.1,211.1 210.1,220.1 174.1,229.1 "/>
<path class="st4" d="M137.4,235.7c0.1,0.2,2.2,3.5,6.4,3.7c3.1,0.1,6-1.4,7.4-4"/>
<path class="st4" d="M180.6,236c0.1,0.2,2.2,3.5,6.4,3.7c3.1,0.1,6-1.4,7.4-4"/>
<path class="st5" d="M162.9,247.9c0.1,0.2,1,3.5,3.1,3.7c1.5,0.1,2.9-1.4,3.5-4"/>
</svg>
