<?xml version="1.0" encoding="utf-8"?>
<!-- Generator: Adobe Illustrator 27.9.4, SVG Export Plug-In . SVG Version: 9.03 Build 54784)  -->
<svg version="1.1" id="Ebene_1" xmlns="http://www.w3.org/2000/svg" xmlns:xlink="http://www.w3.org/1999/xlink" x="0px" y="0px"
	 viewBox="0 0 400 400" style="enable-background:new 0 0 400 400;" xml:space="preserve">
<style type="text/css">
	.st0{fill:#F7F7F7;}
	.st1{fill:#424242;}
</style>
<path class="st0" d="M347.8,230.1c0,34.5-37.6,62.7-84.8,64.3c-1.4,0.1-2.8,0.1-4.2,0.1H123c-1.4,0-2.9-0.1-4.3-0.2
	c-37.9-3-67.8-32.1-66.5-64.9c1.2-30.5,29-57.1,65.2-60.4c-0.1-0.9-0.1-1.8-0.1-2.6c0-33.6,32.6-60.8,72.8-60.8s72.5,26.9,72.8,60.3
	C310.2,167.4,347.8,195.6,347.8,230.1z"/>
<polygon class="st1" points="160.2,195.5 151.2,204.5 187.2,213.5 "/>
<polygon class="st1" points="232.2,195.5 241.2,204.5 205.2,213.5 "/>
<circle class="st1" cx="174.9" cy="219.1" r="3.3"/>
<circle class="st1" cx="217.6" cy="219.1" r="3.3"/>
<path class="st1" d="M187.2,231.5c0,0,6,18,9,18s9-18,9-18"/>
</svg>
