<?xml version="1.0" encoding="utf-8"?>
<!-- Generator: Adobe Illustrator 27.9.4, SVG Export Plug-In . SVG Version: 9.03 Build 54784)  -->
<svg version="1.1" id="Ebene_1" xmlns="http://www.w3.org/2000/svg" xmlns:xlink="http://www.w3.org/1999/xlink" x="0px" y="0px"
	 viewBox="0 0 400 400" style="enable-background:new 0 0 400 400;" xml:space="preserve">
<style type="text/css">
	.st0{fill:#F7F7F7;}
	.st1{fill:#424242;}
	.st2{fill:#D4E5FF;}
</style>
<g>
	<path class="st0" d="M347.8,189.8c0,34.5-37.6,62.7-84.8,64.3c-1.4,0.1-2.8,0.1-4.2,0.1H123c-1.4,0-2.9-0.1-4.3-0.2
		c-37.9-3-67.8-32.1-66.5-64.9c1.2-30.5,29-57.1,65.2-60.4c-0.1-0.9-0.1-1.8-0.1-2.6c0-33.6,32.6-60.8,72.8-60.8
		s72.5,26.9,72.8,60.3C310.2,127.1,347.8,155.2,347.8,189.8z"/>
	<polygon class="st1" points="160.2,155.2 151.2,164.2 187.2,173.2 	"/>
	<polygon class="st1" points="232.2,155.2 241.2,164.2 205.2,173.2 	"/>
	<circle class="st1" cx="174.9" cy="178.8" r="3.3"/>
	<circle class="st1" cx="217.6" cy="178.8" r="3.3"/>
	<path class="st1" d="M187.2,191.2c0,0,6,18,9,18s9-18,9-18"/>
</g>
<path class="st2" d="M127.6,282.6c0,4.8-3.8,8.6-8.6,8.6s-8.6-3.9-8.6-8.6c0-0.9,0.2-1.8,0.4-2.6l0,0l8.2-16l7.6,14.5
	c0.2,0.5,0.5,1,0.6,1.5C127.4,280.8,127.6,281.7,127.6,282.6z"/>
<path class="st2" d="M166,326.2c0,4.8-3.8,8.6-8.6,8.6c-4.8,0-8.6-3.9-8.6-8.6c0-0.9,0.1-1.8,0.4-2.6l0,0l8.2-16l7.6,14.5
	c0.2,0.5,0.5,1,0.6,1.5C165.9,324.4,166,325.3,166,326.2z"/>
<path class="st2" d="M204.1,283.7c0,4.8-3.9,8.6-8.6,8.6s-8.6-3.9-8.6-8.6c0-0.9,0.1-1.8,0.4-2.6l0,0l8.2-16l7.6,14.5
	c0.2,0.5,0.5,1,0.6,1.5C204,281.9,204.1,282.7,204.1,283.7z"/>
<path class="st2" d="M242.5,316.5c0,4.8-3.9,8.6-8.6,8.6s-8.6-3.9-8.6-8.6c0-0.9,0.1-1.8,0.4-2.6l0,0l8.2-16l7.6,14.5
	c0.2,0.5,0.5,1,0.6,1.5C242.3,314.7,242.5,315.5,242.5,316.5L242.5,316.5z"/>
<path class="st2" d="M278.3,281.7c0,4.8-3.9,8.6-8.6,8.6c-4.8,0-8.6-3.9-8.6-8.6c0-0.9,0.1-1.8,0.4-2.6l0,0l8.2-16l7.6,14.5
	c0.2,0.5,0.5,1,0.6,1.5C278.2,279.9,278.3,280.8,278.3,281.7z"/>
</svg>
