<?xml version="1.0" encoding="utf-8"?>
<!-- Generator: Adobe Illustrator 27.9.4, SVG Export Plug-In . SVG Version: 9.03 Build 54784)  -->
<svg version="1.1" id="Ebene_1" xmlns="http://www.w3.org/2000/svg" xmlns:xlink="http://www.w3.org/1999/xlink" x="0px" y="0px"
	 viewBox="0 0 400 400" style="enable-background:new 0 0 400 400;" xml:space="preserve">
<style type="text/css">
	.st0{fill:none;}
	.st1{fill:#DDDDDD;}
	.st2{fill:url(#Neues_Musterfeld_13);}
	.st3{fill:#424242;}
	.st4{fill:#D4E5FF;}
</style>
<pattern  y="400" width="50" height="50" patternUnits="userSpaceOnUse" id="Neues_Musterfeld_13" viewBox="0 -50 50 50" style="overflow:visible;">
	<g>
		<rect y="-50" class="st0" width="50" height="50"/>
		<rect y="-50" class="st1" width="50" height="50"/>
	</g>
</pattern>
<path class="st2" d="M347.8,176.5c0,34.5-37.6,62.7-84.8,64.3c-1.4,0.1-2.8,0.1-4.2,0.1H123c-1.4,0-2.9-0.1-4.3-0.2
	c-37.9-3-67.8-32.1-66.5-64.9c1.2-30.5,29-57.1,65.2-60.4c-0.1-0.9-0.1-1.8-0.1-2.6c0-33.6,32.6-60.8,72.8-60.8s72.5,26.9,72.8,60.3
	C310.2,113.8,347.8,141.9,347.8,176.5z"/>
<polygon class="st3" points="160.2,141.9 151.2,150.9 187.2,159.9 "/>
<polygon class="st3" points="232.2,141.9 241.2,150.9 205.2,159.9 "/>
<circle class="st3" cx="174.9" cy="165.5" r="3.3"/>
<circle class="st3" cx="217.6" cy="165.5" r="3.3"/>
<path class="st3" d="M187.2,181.8c0,0,6-10.5,9-10.5s9,10.5,9,10.5"/>
<path class="st4" d="M123.2,271.4c0,4.8-3.8,8.6-8.6,8.6s-8.6-3.9-8.6-8.6c0-0.9,0.2-1.8,0.4-2.6l0,0l8.2-16l7.6,14.5
	c0.2,0.5,0.5,1,0.6,1.5C123.1,269.6,123.2,270.5,123.2,271.4z"/>
<path class="st4" d="M199.8,272.5c0,4.8-3.9,8.6-8.6,8.6s-8.6-3.9-8.6-8.6c0-0.9,0.1-1.8,0.4-2.6l0,0l8.2-16l7.6,14.5
	c0.2,0.5,0.5,1,0.6,1.5C199.6,270.6,199.8,271.5,199.8,272.5z"/>
<path class="st4" d="M268.7,270.6c0,4.8-3.9,8.6-8.6,8.6c-4.8,0-8.6-3.9-8.6-8.6c0-0.9,0.1-1.8,0.4-2.6l0,0l8.2-16l7.6,14.5
	c0.2,0.5,0.5,1,0.6,1.5C268.5,268.8,268.7,269.7,268.7,270.6z"/>
<polygon class="st4" points="106.3,313.8 105.1,315.9 105.1,318.1 103.2,319.2 101.8,321.7 98.9,321.7 97.2,322.6 95.5,321.7 
	92.6,321.7 91.2,319.2 89.3,318.1 89.3,315.9 88.1,313.8 89.3,311.7 89.3,309 91.6,307.6 92.6,305.9 94.7,305.9 97.2,304.4 
	99.7,305.9 101.8,305.9 102.8,307.6 105.1,309 105.1,311.7 "/>
<polygon class="st4" points="154,335.8 152.8,337.9 152.8,340 150.9,341.1 149.4,343.6 146.5,343.6 144.9,344.6 143.2,343.6 
	140.3,343.6 138.9,341.1 137,340 137,337.9 135.8,335.8 137,333.6 137,330.9 139.3,329.6 140.3,327.9 142.3,327.9 144.9,326.4 
	147.4,327.9 149.4,327.9 150.4,329.6 152.8,330.9 152.8,333.6 "/>
<polygon class="st4" points="243.9,339.2 242.6,341.4 242.6,343.5 240.8,344.6 239.3,347.1 236.4,347.1 234.8,348.1 233.1,347.1 
	230.2,347.1 228.8,344.6 226.9,343.5 226.9,341.3 225.6,339.2 226.9,337.1 226.9,334.4 229.2,333.1 230.2,331.3 232.2,331.3 
	234.8,329.9 237.3,331.3 239.3,331.3 240.3,333.1 242.6,334.4 242.6,337.1 "/>
<polygon class="st4" points="290.1,311.9 288.9,314 288.9,316.2 287,317.3 285.6,319.8 282.7,319.8 281,320.7 279.3,319.8 
	276.5,319.8 275,317.3 273.1,316.2 273.1,314 271.9,311.9 273.1,309.8 273.1,307.1 275.5,305.7 276.5,304 278.5,304 281,302.5 
	283.5,304 285.6,304 286.6,305.7 288.9,307.1 288.9,309.7 "/>
<polygon class="st4" points="198.5,309.6 197.3,311.8 197.3,313.9 195.4,315 194,317.5 191.1,317.5 189.4,318.5 187.7,317.5 
	184.8,317.5 183.4,315 181.5,313.9 181.5,311.7 180.3,309.6 181.5,307.5 181.5,304.8 183.8,303.5 184.8,301.7 186.9,301.7 
	189.4,300.3 191.9,301.7 194,301.7 195,303.5 197.3,304.8 197.3,307.5 "/>
<path class="st4" d="M155.7,290.3c0,3-2.4,5.4-5.4,5.4s-5.4-2.4-5.4-5.4c0-0.6,0.1-1.1,0.3-1.7l0,0l5.2-10l4.8,9.1
	c0.2,0.3,0.3,0.6,0.4,0.9C155.6,289.1,155.7,289.7,155.7,290.3L155.7,290.3z"/>
<path class="st4" d="M236.5,297.6c0,3-2.4,5.4-5.4,5.4s-5.4-2.4-5.4-5.4c0-0.6,0.1-1.1,0.3-1.7l0,0l5.2-10l4.8,9.1
	c0.2,0.3,0.3,0.6,0.4,0.9C236.4,296.5,236.5,297,236.5,297.6L236.5,297.6z"/>
</svg>
