<?xml version="1.0" encoding="utf-8"?>
<!-- Generator: Adobe Illustrator 27.9.4, SVG Export Plug-In . SVG Version: 9.03 Build 54784)  -->
<svg version="1.1" id="Ebene_1" xmlns="http://www.w3.org/2000/svg" xmlns:xlink="http://www.w3.org/1999/xlink" x="0px" y="0px"
	 viewBox="0 0 400 400" style="enable-background:new 0 0 400 400;" xml:space="preserve">
<style type="text/css">
	.st0{fill:#F7F7F7;}
	.st1{fill:#424242;}
	.st2{fill:none;stroke:#D4E5FF;stroke-width:4;stroke-linecap:round;stroke-linejoin:round;}
</style>
<path class="st0" d="M347.8,192.4c0,34.5-37.6,62.7-84.8,64.3c-1.4,0-2.8,0.1-4.2,0.1H123c-1.4,0-2.9-0.1-4.3-0.2
	c-37.9-3-67.8-32.1-66.5-64.9c1.2-30.5,29-57.1,65.2-60.4c-0.1-0.9-0.1-1.8-0.1-2.6c0-33.6,32.6-60.8,72.8-60.8s72.5,26.9,72.8,60.3
	C310.2,129.7,347.8,157.9,347.8,192.4z"/>
<polygon class="st1" points="160.2,157.8 151.2,166.8 187.2,175.8 "/>
<polygon class="st1" points="232.2,157.8 241.2,166.8 205.2,175.8 "/>
<circle class="st1" cx="174.9" cy="181.5" r="3.3"/>
<circle class="st1" cx="217.6" cy="181.5" r="3.3"/>
<path class="st1" d="M187.2,197.7c0,0,6-10.5,9-10.5s9,10.5,9,10.5"/>
<path class="st2" d="M107.4,269.8c-6.3,14.1-12.6,28.1-18.8,42.2"/>
<path class="st2" d="M125.3,269.1c-9.3,20.8-18.5,41.5-27.8,62.3"/>
<path class="st2" d="M144.6,269.1c-6.3,14.1-12.6,28.1-18.8,42.2"/>
<path class="st2" d="M162.5,268.4c-9.3,20.8-18.5,41.5-27.8,62.3"/>
<path class="st2" d="M180.2,269.6c-6.3,14.1-12.6,28.1-18.8,42.2"/>
<path class="st2" d="M198.1,268.9c-9.3,20.8-18.5,41.5-27.8,62.3"/>
<path class="st2" d="M214.9,270.6c-6.3,14.1-12.6,28.1-18.8,42.2"/>
<path class="st2" d="M232.9,269.9c-9.3,20.8-18.5,41.5-27.8,62.3"/>
<path class="st2" d="M252.2,269.8c-6.3,14.1-12.6,28.1-18.8,42.2"/>
<path class="st2" d="M270.1,269.1c-9.3,20.8-18.5,41.5-27.8,62.3"/>
<path class="st2" d="M287.7,270.3c-6.3,14.1-12.6,28.1-18.8,42.2"/>
</svg>
