<?xml version="1.0" encoding="utf-8"?>
<!-- Generator: Adobe Illustrator 27.9.4, SVG Export Plug-In . SVG Version: 9.03 Build 54784)  -->
<svg version="1.1" id="Ebene_1" xmlns="http://www.w3.org/2000/svg" xmlns:xlink="http://www.w3.org/1999/xlink" x="0px" y="0px"
	 viewBox="0 0 400 399.9" style="enable-background:new 0 0 400 399.9;" xml:space="preserve">
<style type="text/css">
	.st0{fill:#F7F7F7;}
	.st1{fill:none;stroke:#FFFFFF;stroke-width:19;stroke-linecap:round;stroke-linejoin:round;}
	.st2{fill:none;stroke:#BCBCBC;stroke-width:8;stroke-linecap:round;stroke-linejoin:round;}
	.st3{fill:none;stroke:#BCBCBC;stroke-width:2;stroke-linecap:round;stroke-linejoin:round;}
</style>
<path class="st0" d="M347.8,177.3c0,34.5-37.6,62.7-84.8,64.3c-1.4,0.1-2.8,0.1-4.2,0.1H123c-1.4,0-2.9-0.1-4.3-0.2
	c-37.9-3-67.8-32.1-66.5-64.9c1.2-30.5,29-57.1,65.2-60.4c-0.1-0.9-0.1-1.8-0.1-2.6c0-33.6,32.6-60.8,72.8-60.8S262.6,79.7,263,113
	C310.2,114.6,347.8,142.8,347.8,177.3z"/>
<g>
	<path class="st1" d="M196.9,94.4v130.6"/>
	<path class="st1" d="M140.5,127l113.1,65.3"/>
	<path class="st1" d="M140.5,192.2l112.8-65.1"/>
	<path class="st1" d="M157.8,113.9l9.8,29.4l-29.4,6.5"/>
	<path class="st1" d="M138.2,169.4l29.4,6.5l-9.8,29.4"/>
	<path class="st1" d="M236.1,113.9l-9.8,29.4l29.4,6.5"/>
	<path class="st1" d="M255.7,169.4l-29.4,6.5l9.8,29.4"/>
	<path class="st1" d="M177.3,104.2l19.6,19.6l19.6-19.6"/>
	<path class="st1" d="M177.3,215.1l19.6-19.6l19.6,19.6"/>
</g>
<g>
	<path class="st2" d="M197,94.5v130.6"/>
	<path class="st2" d="M140.6,127.2l113.1,65.3"/>
	<path class="st2" d="M140.6,192.4l112.8-65.1"/>
	<path class="st2" d="M157.8,114.1l9.8,29.4l-29.4,6.5"/>
	<path class="st2" d="M138.2,169.6l29.4,6.5l-9.8,29.4"/>
	<path class="st2" d="M236.1,114.1l-9.8,29.4l29.4,6.5"/>
	<path class="st2" d="M255.7,169.6l-29.4,6.5l9.8,29.4"/>
	<path class="st2" d="M177.4,104.3l19.6,19.6l19.6-19.6"/>
	<path class="st2" d="M177.4,215.3l19.6-19.6l19.6,19.6"/>
</g>
<g>
	<path class="st3" d="M101.9,259.5v20.8"/>
	<path class="st3" d="M92.9,264.7l18,10.4"/>
	<path class="st3" d="M92.9,275.1l17.9-10.4"/>
	<path class="st3" d="M95.7,262.6l1.6,4.7l-4.7,1"/>
	<path class="st3" d="M92.6,271.5l4.7,1l-1.6,4.7"/>
	<path class="st3" d="M108.1,262.6l-1.6,4.7l4.7,1"/>
	<path class="st3" d="M111.2,271.5l-4.7,1l1.6,4.7"/>
	<path class="st3" d="M98.8,261.1l3.1,3.1l3.1-3.1"/>
	<path class="st3" d="M98.8,278.7l3.1-3.1l3.1,3.1"/>
</g>
<g>
	<path class="st3" d="M141.2,298.2V319"/>
	<path class="st3" d="M132.3,303.4l18,10.4"/>
	<path class="st3" d="M132.3,313.8l17.9-10.4"/>
	<path class="st3" d="M135,301.3l1.6,4.7l-4.7,1"/>
	<path class="st3" d="M131.9,310.1l4.7,1l-1.6,4.7"/>
	<path class="st3" d="M147.5,301.3l-1.6,4.7l4.7,1"/>
	<path class="st3" d="M150.6,310.1l-4.7,1l1.6,4.7"/>
	<path class="st3" d="M138.1,299.8l3.1,3.1l3.1-3.1"/>
	<path class="st3" d="M138.1,317.4l3.1-3.1l3.1,3.1"/>
</g>
<g>
	<path class="st3" d="M197,275.7v20.8"/>
	<path class="st3" d="M188,280.9l18,10.4"/>
	<path class="st3" d="M188,291.2l17.9-10.3"/>
	<path class="st3" d="M190.8,278.8l1.6,4.7l-4.7,1"/>
	<path class="st3" d="M187.6,287.6l4.7,1l-1.6,4.7"/>
	<path class="st3" d="M203.2,278.8l-1.6,4.7l4.7,1"/>
	<path class="st3" d="M206.3,287.6l-4.7,1l1.6,4.7"/>
	<path class="st3" d="M193.9,277.2l3.1,3.1l3.1-3.1"/>
	<path class="st3" d="M193.9,294.9l3.1-3.1l3.1,3.1"/>
</g>
<g>
	<path class="st3" d="M285.6,263.9v20.8"/>
	<path class="st3" d="M276.7,269.1l18,10.4"/>
	<path class="st3" d="M276.7,279.4l17.9-10.4"/>
	<path class="st3" d="M279.4,267l1.6,4.7l-4.7,1"/>
	<path class="st3" d="M276.3,275.8l4.7,1l-1.6,4.7"/>
	<path class="st3" d="M291.9,267l-1.6,4.7l4.7,1"/>
	<path class="st3" d="M295,275.8l-4.7,1l1.6,4.7"/>
	<path class="st3" d="M282.5,265.5l3.1,3.1l3.1-3.1"/>
	<path class="st3" d="M282.5,283.1l3.1-3.1l3.1,3.1"/>
</g>
<g>
	<path class="st3" d="M248.7,303.3V324"/>
	<path class="st3" d="M239.8,308.5l18,10.4"/>
	<path class="st3" d="M239.8,318.8l17.9-10.4"/>
	<path class="st3" d="M242.5,306.4l1.6,4.7l-4.7,1"/>
	<path class="st3" d="M239.4,315.2l4.7,1l-1.6,4.7"/>
	<path class="st3" d="M255,306.4l-1.6,4.7l4.7,1"/>
	<path class="st3" d="M258.1,315.2l-4.7,1l1.6,4.7"/>
	<path class="st3" d="M245.6,304.8l3.1,3.1l3.1-3.1"/>
	<path class="st3" d="M245.6,322.5l3.1-3.1l3.1,3.1"/>
</g>
<g>
	<path class="st3" d="M238.3,254.5v27.4"/>
	<path class="st3" d="M226.5,261.4l23.7,13.7"/>
	<path class="st3" d="M226.5,275l23.7-13.7"/>
	<path class="st3" d="M230.1,258.6l2.1,6.2l-6.2,1.4"/>
	<path class="st3" d="M226,270.3l6.2,1.4l-2.1,6.2"/>
	<path class="st3" d="M246.6,258.6l-2.1,6.2l6.2,1.4"/>
	<path class="st3" d="M250.7,270.3l-6.2,1.4l2.1,6.2"/>
	<path class="st3" d="M234.2,256.6l4.1,4.1l4.1-4.1"/>
	<path class="st3" d="M234.2,279.9l4.1-4.1l4.1,4.1"/>
</g>
<g>
	<path class="st3" d="M152.2,252.4v27.4"/>
	<path class="st3" d="M140.4,259.2l23.7,13.7"/>
	<path class="st3" d="M140.4,272.9l23.7-13.7"/>
	<path class="st3" d="M144,256.5l2.1,6.2l-6.2,1.4"/>
	<path class="st3" d="M139.9,268.1l6.2,1.4l-2.1,6.2"/>
	<path class="st3" d="M160.4,256.5l-2.1,6.2l6.2,1.4"/>
	<path class="st3" d="M164.5,268.1l-6.2,1.4l2.1,6.2"/>
	<path class="st3" d="M148.1,254.4l4.1,4.1l4.1-4.1"/>
	<path class="st3" d="M148.1,277.7l4.1-4.1l4.1,4.1"/>
</g>
<g>
	<path class="st3" d="M194.7,319.9v27.4"/>
	<path class="st3" d="M182.9,326.7l23.7,13.7"/>
	<path class="st3" d="M182.9,340.4l23.7-13.7"/>
	<path class="st3" d="M186.5,324l2.1,6.2l-6.2,1.4"/>
	<path class="st3" d="M182.4,335.6l6.2,1.4l-2.1,6.2"/>
	<path class="st3" d="M202.9,324l-2.1,6.2l6.2,1.4"/>
	<path class="st3" d="M207,335.6l-6.2,1.4l2.1,6.2"/>
	<path class="st3" d="M190.6,321.9l4.1,4.1l4.1-4.1"/>
	<path class="st3" d="M190.6,345.2l4.1-4.1l4.1,4.1"/>
</g>
<g>
	<path class="st3" d="M92.8,170.4v27.4"/>
	<path class="st3" d="M81,177.3l23.7,13.7"/>
	<path class="st3" d="M81,191l23.7-13.7"/>
	<path class="st3" d="M84.6,174.6l2.1,6.2l-6.2,1.4"/>
	<path class="st3" d="M80.5,186.2l6.2,1.4l-2.1,6.2"/>
	<path class="st3" d="M101,174.6l-2,6.2l6.2,1.4"/>
	<path class="st3" d="M105.1,186.2l-6.2,1.4l2.1,6.2"/>
	<path class="st3" d="M88.7,172.5l4.1,4.1l4.1-4.1"/>
	<path class="st3" d="M88.7,195.8l4.1-4.1l4.1,4.1"/>
</g>
<g>
	<path class="st3" d="M296.2,170.2v27.4"/>
	<path class="st3" d="M284.4,177l23.7,13.7"/>
	<path class="st3" d="M284.4,190.7l23.7-13.7"/>
	<path class="st3" d="M288,174.3l2.1,6.2l-6.2,1.4"/>
	<path class="st3" d="M283.9,185.9l6.2,1.4l-2.1,6.2"/>
	<path class="st3" d="M304.5,174.3l-2,6.2l6.2,1.4"/>
	<path class="st3" d="M308.6,185.9l-6.2,1.4l2.1,6.2"/>
	<path class="st3" d="M292.1,172.2l4.1,4.1l4.1-4.1"/>
	<path class="st3" d="M292.1,195.5l4.1-4.1l4.1,4.1"/>
</g>
</svg>
