<?xml version="1.0" encoding="utf-8"?>
<!-- Generator: Adobe Illustrator 27.9.4, SVG Export Plug-In . SVG Version: 9.03 Build 54784)  -->
<svg version="1.1" id="Ebene_1" xmlns="http://www.w3.org/2000/svg" xmlns:xlink="http://www.w3.org/1999/xlink" x="0px" y="0px"
	 viewBox="0 0 400 400" style="enable-background:new 0 0 400 400;" xml:space="preserve">
<style type="text/css">
	.st0{fill:#F7F7F7;}
	.st1{fill:none;stroke:#FFFFFF;stroke-width:19;stroke-linecap:round;stroke-linejoin:round;}
	.st2{fill:none;stroke:#D4E5FF;stroke-width:4;stroke-linecap:round;stroke-linejoin:round;}
	.st3{fill:none;stroke:#BCBCBC;stroke-width:8;stroke-linecap:round;stroke-linejoin:round;}
	.st4{fill:none;stroke:#BCBCBC;stroke-width:2;stroke-linecap:round;stroke-linejoin:round;}
</style>
<g id="Ebene_1_00000101092285894885684650000009498072238387631530_">
	<path class="st0" d="M347.8,190.4c0,34.5-37.6,62.7-84.8,64.3c-1.4,0.1-2.8,0.1-4.2,0.1H123c-1.4,0-2.9-0.1-4.3-0.2
		c-37.9-3-67.8-32.1-66.5-64.9c1.2-30.5,29-57.1,65.2-60.4c-0.1-0.9-0.1-1.8-0.1-2.6c0-33.6,32.6-60.8,72.8-60.8
		s72.5,26.9,72.8,60.3C310.2,127.7,347.8,155.9,347.8,190.4z"/>
</g>
<g id="Ebene_3">
	<g>
		<path class="st1" d="M196.9,107.4V238"/>
		<path class="st1" d="M140.5,140.1l113.1,65.3"/>
		<path class="st1" d="M140.5,205.3l112.8-65.1"/>
		<path class="st1" d="M157.8,127l9.8,29.4l-29.4,6.5"/>
		<path class="st1" d="M138.2,182.5l29.4,6.5l-9.8,29.4"/>
		<path class="st1" d="M236.1,127l-9.8,29.4l29.4,6.5"/>
		<path class="st1" d="M255.7,182.5l-29.4,6.5l9.8,29.4"/>
		<path class="st1" d="M177.3,117.2l19.6,19.6l19.6-19.6"/>
		<path class="st1" d="M177.3,228.2l19.6-19.6l19.6,19.6"/>
	</g>
</g>
<g id="Ebene_5">
	<path class="st2" d="M110.7,271.9c-9.3,20.8-18.5,41.5-27.8,62.3"/>
	<path class="st2" d="M148.6,271.9c-6.3,14.1-12.6,28.1-18.8,42.2"/>
	<path class="st2" d="M185.4,271.9c-9.3,20.8-18.5,41.5-27.8,62.3"/>
	<path class="st2" d="M223.8,271.9c-6.3,14.1-12.6,28.1-18.8,42.2"/>
	<path class="st2" d="M260,271.9c-9.3,20.8-18.5,41.5-27.8,62.3"/>
	<path class="st2" d="M292.9,271.9c-6.3,14.1-12.6,28.1-18.8,42.2"/>
</g>
<g id="Ebene_4">
	<g>
		<path class="st3" d="M197,107.6v130.6"/>
		<path class="st3" d="M140.6,140.2l113.1,65.3"/>
		<path class="st3" d="M140.6,205.4l112.8-65.1"/>
		<path class="st3" d="M157.8,127.2l9.8,29.4l-29.4,6.5"/>
		<path class="st3" d="M138.2,182.7l29.4,6.5l-9.8,29.4"/>
		<path class="st3" d="M236.1,127.2l-9.8,29.4l29.4,6.5"/>
		<path class="st3" d="M255.7,182.7l-29.4,6.5l9.8,29.4"/>
		<path class="st3" d="M177.4,117.4L197,137l19.6-19.6"/>
		<path class="st3" d="M177.4,228.4l19.6-19.6l19.6,19.6"/>
	</g>
	<g>
		<path class="st4" d="M109.6,275.6v20.8"/>
		<path class="st4" d="M100.6,280.8l18,10.4"/>
		<path class="st4" d="M100.6,291.2l17.9-10.4"/>
		<path class="st4" d="M103.4,278.8l1.6,4.7l-4.7,1"/>
		<path class="st4" d="M100.2,287.6l4.7,1l-1.6,4.7"/>
		<path class="st4" d="M115.8,278.8l-1.6,4.7l4.7,1"/>
		<path class="st4" d="M118.9,287.6l-4.7,1l1.6,4.7"/>
		<path class="st4" d="M106.5,277.2l3.1,3.1l3.1-3.1"/>
		<path class="st4" d="M106.5,294.8l3.1-3.1l3.1,3.1"/>
	</g>
	<g>
		<path class="st4" d="M150.6,311.3V332"/>
		<path class="st4" d="M141.6,316.5l18,10.4"/>
		<path class="st4" d="M141.6,326.8l17.9-10.4"/>
		<path class="st4" d="M144.3,314.4l1.6,4.7l-4.7,1"/>
		<path class="st4" d="M141.2,323.2l4.7,1l-1.6,4.7"/>
		<path class="st4" d="M156.8,314.4l-1.6,4.7l4.7,1"/>
		<path class="st4" d="M159.9,323.2l-4.7,1l1.6,4.7"/>
		<path class="st4" d="M147.5,312.9l3.1,3.1l3.1-3.1"/>
		<path class="st4" d="M147.5,330.5l3.1-3.1l3.1,3.1"/>
	</g>
	<g>
		<path class="st4" d="M195.1,275.7v20.8"/>
		<path class="st4" d="M186.1,280.9l18,10.4"/>
		<path class="st4" d="M186.1,291.3l17.9-10.4"/>
		<path class="st4" d="M188.8,278.8l1.6,4.7l-4.7,1"/>
		<path class="st4" d="M185.7,287.6l4.7,1l-1.6,4.7"/>
		<path class="st4" d="M201.3,278.8l-1.6,4.7l4.7,1"/>
		<path class="st4" d="M204.4,287.6l-4.7,1l1.6,4.7"/>
		<path class="st4" d="M191.9,277.3l3.1,3.1l3.1-3.1"/>
		<path class="st4" d="M191.9,294.9l3.1-3.1l3.1,3.1"/>
	</g>
	<g>
		<path class="st4" d="M274.8,275.7v20.8"/>
		<path class="st4" d="M265.9,280.9l18,10.4"/>
		<path class="st4" d="M265.8,291.3l17.9-10.4"/>
		<path class="st4" d="M268.6,278.8l1.6,4.7l-4.7,1"/>
		<path class="st4" d="M265.5,287.6l4.7,1l-1.6,4.7"/>
		<path class="st4" d="M281,278.8l-1.6,4.7l4.7,1"/>
		<path class="st4" d="M284.1,287.6l-4.7,1l1.6,4.7"/>
		<path class="st4" d="M271.7,277.3l3.1,3.1l3.1-3.1"/>
		<path class="st4" d="M271.7,294.9l3.1-3.1l3.1,3.1"/>
	</g>
	<g>
		<path class="st4" d="M234.2,310.4v20.8"/>
		<path class="st4" d="M225.2,315.5l18,10.4"/>
		<path class="st4" d="M225.2,325.9l17.9-10.4"/>
		<path class="st4" d="M228,313.5l1.6,4.7l-4.7,1"/>
		<path class="st4" d="M224.9,322.3l4.7,1L228,328"/>
		<path class="st4" d="M240.4,313.5l-1.6,4.7l4.7,1"/>
		<path class="st4" d="M243.5,322.3l-4.7,1l1.6,4.7"/>
		<path class="st4" d="M231.1,311.9l3.1,3.1l3.1-3.1"/>
		<path class="st4" d="M231.1,329.6l3.1-3.1l3.1,3.1"/>
	</g>
</g>
</svg>
