<?xml version="1.0" encoding="utf-8"?>
<!-- Generator: Adobe Illustrator 27.9.4, SVG Export Plug-In . SVG Version: 9.03 Build 54784)  -->
<svg version="1.1" id="Ebene_1" xmlns="http://www.w3.org/2000/svg" xmlns:xlink="http://www.w3.org/1999/xlink" x="0px" y="0px"
	 viewBox="0 0 400 400" style="enable-background:new 0 0 400 400;" xml:space="preserve">
<style type="text/css">
	.st0{fill:none;stroke:#FFFFFF;stroke-width:19;stroke-linecap:round;stroke-linejoin:round;}
	.st1{fill:none;stroke:#BCBCBC;stroke-width:12;stroke-linecap:round;stroke-linejoin:round;}
</style>
<g id="Ebene_3">
	<g>
		<path class="st0" d="M199.9,83.8v232.1"/>
		<path class="st0" d="M99.7,141.7l201,116.1"/>
		<path class="st0" d="M99.7,257.6l200.5-115.7"/>
		<path class="st0" d="M130.4,118.6l17.4,52.3l-52.3,11.6"/>
		<path class="st0" d="M95.6,217.2l52.3,11.6l-17.4,52.3"/>
		<path class="st0" d="M269.6,118.6l-17.4,52.3l52.3,11.6"/>
		<path class="st0" d="M304.4,217.2l-52.3,11.6l17.4,52.3"/>
		<path class="st0" d="M165.1,101.2l34.8,34.8l34.8-34.8"/>
		<path class="st0" d="M165.1,298.5l34.8-34.8l34.8,34.8"/>
	</g>
</g>
<g>
	<path class="st1" d="M200.1,83.9v232.1"/>
	<path class="st1" d="M99.8,141.9l201,116.1"/>
	<path class="st1" d="M99.8,257.8l200.5-115.7"/>
	<path class="st1" d="M130.4,118.6l17.4,52.3l-52.3,11.6"/>
	<path class="st1" d="M95.6,217.2l52.3,11.6l-17.4,52.3"/>
	<path class="st1" d="M269.6,118.6l-17.4,52.3l52.3,11.6"/>
	<path class="st1" d="M304.4,217.2l-52.3,11.6l17.4,52.3"/>
	<path class="st1" d="M165.3,101.2l34.8,34.8l34.8-34.8"/>
	<path class="st1" d="M165.3,298.5l34.8-34.8l34.8,34.8"/>
</g>
</svg>
