<?xml version="1.0" encoding="utf-8"?>
<!-- Generator: Adobe Illustrator 27.9.4, SVG Export Plug-In . SVG Version: 9.03 Build 54784)  -->
<svg version="1.1" id="Ebene_1" xmlns="http://www.w3.org/2000/svg" xmlns:xlink="http://www.w3.org/1999/xlink" x="0px" y="0px"
	 viewBox="0 0 400 400" style="enable-background:new 0 0 400 400;" xml:space="preserve">
<style type="text/css">
	.st0{fill:none;}
	.st1{fill:#FFE650;}
	.st2{fill:url(#SVGID_1_);}
	.st3{fill:#FFF19F;}
	.st4{fill:none;stroke:#F7F7F7;stroke-width:7;stroke-linecap:round;stroke-miterlimit:10;}
	
		.st5{fill:none;stroke:url(#SVGID_00000039113828643347482590000013522441487770563762_);stroke-width:8;stroke-linecap:round;stroke-miterlimit:10;}
	
		.st6{fill:none;stroke:url(#SVGID_00000171706742739709824070000004656843530576894888_);stroke-width:8;stroke-linecap:round;stroke-miterlimit:10;}
	
		.st7{fill:none;stroke:url(#SVGID_00000065759568441929489500000007309735287895365522_);stroke-width:8;stroke-linecap:round;stroke-miterlimit:10;}
	
		.st8{fill:none;stroke:url(#SVGID_00000051378175416413995660000001371550681442430593_);stroke-width:8;stroke-linecap:round;stroke-miterlimit:10;}
	
		.st9{fill:none;stroke:url(#SVGID_00000000219379134675324620000003084871666059861393_);stroke-width:8;stroke-linecap:round;stroke-miterlimit:10;}
	
		.st10{fill:none;stroke:url(#SVGID_00000119086691429115700660000002371521023515991442_);stroke-width:8;stroke-linecap:round;stroke-miterlimit:10;}
	.st11{fill:#303030;}
	.st12{fill:#EDEDED;}
</style>
<pattern  y="400" width="47" height="47" patternUnits="userSpaceOnUse" id="Neues_Musterfeld_16" viewBox="0 -47 47 47" style="overflow:visible;">
	<g>
		<rect y="-47" class="st0" width="47" height="47"/>
		<g>
			<rect y="-47" class="st0" width="47" height="47"/>
			<rect y="-47" class="st1" width="47" height="47"/>
		</g>
	</g>
</pattern>
<pattern  id="SVGID_1_" xlink:href="#Neues_Musterfeld_16" patternTransform="matrix(1 0 0 -1 2 -16821)">
</pattern>
<path class="st2" d="M122.4,265.6c-0.5-3.7-0.9-7.5-0.9-11.5c0-42.1,34.1-76.1,76.1-76.1s76.1,34.1,76.1,76.1
	c0,3.7-0.3,7.4-0.7,11.1"/>
<path class="st3" d="M127.6,264c-0.1-0.5-0.2-0.9-0.3-1.4"/>
<line class="st4" x1="197.2" y1="154.8" x2="197.2" y2="118.2"/>
<pattern  id="SVGID_00000159457675229847347480000016773519431127085466_" xlink:href="#Neues_Musterfeld_16" patternTransform="matrix(1 0 0 -1 2 -16821)">
</pattern>
<line style="fill:none;stroke:url(#SVGID_00000159457675229847347480000016773519431127085466_);stroke-width:8;stroke-linecap:round;stroke-miterlimit:10;" x1="244.6" y1="175.6" x2="265" y2="143.9"/>
<pattern  id="SVGID_00000126292039562977125150000013052874860060213891_" xlink:href="#Neues_Musterfeld_16" patternTransform="matrix(1 0 0 -1 2 -16821)">
</pattern>
<line style="fill:none;stroke:url(#SVGID_00000126292039562977125150000013052874860060213891_);stroke-width:8;stroke-linecap:round;stroke-miterlimit:10;" x1="283.6" y1="213.4" x2="318" y2="197.8"/>
<pattern  id="SVGID_00000083050263778264607730000012465909618005424830_" xlink:href="#Neues_Musterfeld_16" patternTransform="matrix(1 0 0 -1 2 -16821)">
</pattern>
<line style="fill:none;stroke:url(#SVGID_00000083050263778264607730000012465909618005424830_);stroke-width:8;stroke-linecap:round;stroke-miterlimit:10;" x1="291.7" y1="262" x2="328.5" y2="267.7"/>
<pattern  id="SVGID_00000145029862388929155380000003143150210119321728_" xlink:href="#Neues_Musterfeld_16" patternTransform="matrix(1 0 0 -1 2 -16821)">
</pattern>
<line style="fill:none;stroke:url(#SVGID_00000145029862388929155380000003143150210119321728_);stroke-width:8;stroke-linecap:round;stroke-miterlimit:10;" x1="149.9" y1="176.4" x2="129.4" y2="143.9"/>
<pattern  id="SVGID_00000095326129194876024630000001423844807513689239_" xlink:href="#Neues_Musterfeld_16" patternTransform="matrix(1 0 0 -1 2 -16821)">
</pattern>
<line style="fill:none;stroke:url(#SVGID_00000095326129194876024630000001423844807513689239_);stroke-width:8;stroke-linecap:round;stroke-miterlimit:10;" x1="78.6" y1="197.4" x2="112.5" y2="213.6"/>
<pattern  id="SVGID_00000079465835922759802960000006105640148911522211_" xlink:href="#Neues_Musterfeld_16" patternTransform="matrix(1 0 0 -1 2 -16821)">
</pattern>
<line style="fill:none;stroke:url(#SVGID_00000079465835922759802960000006105640148911522211_);stroke-width:8;stroke-linecap:round;stroke-miterlimit:10;" x1="105.4" y1="262.4" x2="68.4" y2="267.4"/>
<path class="st4" d="M45.5,281.8c309.5,0,309,0,309,0"/>
<g>
	<path class="st11" d="M128.2,230.7c3.6-0.2,139.6-0.3,139.6-0.3v5H266v4h-5.5v5h-5.8v4.8h-6.2v5.7h-34.1v-5.3H209v-5h-5.2v-9.9
		h-13.7v9.9h-5.7v4.9h-5.1v4.8h-33v-4.4h-5.5v-5h-5.6v-5h-5.2v-4.3h-1.8C128.2,235.7,128.2,230.7,128.2,230.7z"/>
	<rect x="207.4" y="235.3" class="st12" width="5.8" height="5.2"/>
	<rect x="213" y="240.5" class="st12" width="5.8" height="5.2"/>
	<rect x="218.7" y="245.9" class="st12" width="5.8" height="5.2"/>
	<rect x="138.3" y="235.2" class="st12" width="5.8" height="5.2"/>
	<rect x="143.9" y="240.3" class="st12" width="5.8" height="5.2"/>
	<rect x="149.6" y="245.6" class="st12" width="5.8" height="5.2"/>
</g>
<polyline class="st4" points="213.7,146.7 197.3,163.1 181.1,146.9 "/>
</svg>
