<?xml version="1.0" encoding="utf-8"?>
<!-- Generator: Adobe Illustrator 27.9.4, SVG Export Plug-In . SVG Version: 9.03 Build 54784)  -->
<svg version="1.1" id="Ebene_1" xmlns="http://www.w3.org/2000/svg" xmlns:xlink="http://www.w3.org/1999/xlink" x="0px" y="0px"
	 viewBox="0 0 400 400" style="enable-background:new 0 0 400 400;" xml:space="preserve">
<style type="text/css">
	.st0{fill:none;}
	.st1{fill:#DDDDDD;}
	.st2{fill:none;stroke:#D4E5FF;stroke-width:4;stroke-linecap:round;stroke-linejoin:round;}
	.st3{fill:url(#Neues_Musterfeld_4);}
	.st4{fill:#424242;}
	.st5{fill:#FFFFFF;stroke:#FFFFFF;stroke-width:10;stroke-miterlimit:10;}
	.st6{fill:#FFDE52;}
</style>
<pattern  y="400" width="36" height="36" patternUnits="userSpaceOnUse" id="Neues_Musterfeld_4" viewBox="0 -36 36 36" style="overflow:visible;">
	<g>
		<rect y="-36" class="st0" width="36" height="36"/>
		<rect y="-36" class="st1" width="36" height="36"/>
	</g>
</pattern>
<path class="st2" d="M107.4,265.4c-6.3,14.1-12.6,28.1-18.8,42.2"/>
<path class="st2" d="M125.3,264.7c-9.3,20.8-18.5,41.5-27.8,62.3"/>
<path class="st2" d="M144.6,264.7c-6.3,14.1-12.6,28.1-18.8,42.2"/>
<path class="st2" d="M162.5,264c-9.3,20.8-18.5,41.5-27.8,62.3"/>
<path class="st2" d="M180.2,265.2c-6.3,14.1-12.6,28.1-18.8,42.2"/>
<path class="st2" d="M198.1,264.5c-9.3,20.8-18.5,41.5-27.8,62.3"/>
<path class="st2" d="M214.9,266.2c-6.3,14.1-12.6,28.1-18.8,42.2"/>
<path class="st2" d="M232.9,265.5c-9.3,20.8-18.5,41.5-27.8,62.3"/>
<path class="st2" d="M252.2,265.4c-6.3,14.1-12.6,28.1-18.8,42.2"/>
<path class="st2" d="M270.1,264.7c-9.3,20.8-18.5,41.5-27.8,62.3"/>
<path class="st2" d="M287.7,265.9c-6.3,14.1-12.5,28.1-18.8,42.2"/>
<path class="st3" d="M347.8,188c0,34.5-37.6,62.7-84.8,64.3c-1.4,0-2.8,0.1-4.2,0.1H123c-1.4,0-2.9-0.1-4.3-0.2
	c-37.9-3-67.8-32.1-66.5-64.9c1.2-30.5,29-57.1,65.2-60.4c-0.1-0.9-0.1-1.8-0.1-2.6c0-33.6,32.6-60.8,72.8-60.8s72.5,26.9,72.8,60.3
	C310.2,125.3,347.8,153.5,347.8,188L347.8,188z"/>
<polygon class="st4" points="160.2,153.4 151.2,162.4 187.2,171.4 "/>
<polygon class="st4" points="232.2,153.4 241.2,162.4 205.2,171.4 "/>
<circle class="st4" cx="174.9" cy="177.1" r="3.3"/>
<circle class="st4" cx="217.6" cy="177.1" r="3.3"/>
<path class="st4" d="M187.2,193.3c0,0,6-10.5,9-10.5s9,10.5,9,10.5"/>
<path class="st5" d="M163.5,336.5h3.7l64.6-74.8c0.9-1.3,0.3-2-1.4-2h-26.6l28-40c0.8-1.3,0.2-2-1.8-2h-35.8c-1.1,0-1.8,0.5-2.8,1.3
	l-26.2,54.4c-0.2,1.3,0.3,2,1.8,2h25.9L163.5,336.5L163.5,336.5z"/>
<path class="st6" d="M163.5,336.5h3.7l64.6-74.8c0.9-1.3,0.3-2-1.4-2h-26.6l28-40c0.8-1.3,0.2-2-1.8-2h-35.8c-1.1,0-1.8,0.5-2.8,1.3
	l-26.2,54.4c-0.2,1.3,0.3,2,1.8,2h25.9L163.5,336.5L163.5,336.5z"/>
</svg>
