<?xml version="1.0" encoding="utf-8"?>
<!-- Generator: Adobe Illustrator 27.9.4, SVG Export Plug-In . SVG Version: 9.03 Build 54784)  -->
<svg version="1.1" xmlns="http://www.w3.org/2000/svg" xmlns:xlink="http://www.w3.org/1999/xlink" x="0px" y="0px"
	 viewBox="0 0 400 400" style="enable-background:new 0 0 400 400;" xml:space="preserve">
<style type="text/css">
	.st0{fill:none;stroke:#FFFFFF;stroke-width:18;stroke-linecap:round;stroke-miterlimit:10;}
	.st1{fill:none;stroke:#A5A5A5;stroke-width:13;stroke-linecap:round;stroke-miterlimit:10;}
</style>
<g id="Ebene_1">
	<g id="Ebene_4">
		<path class="st0" d="M106.8,191c28.8,1.6,51.7,3.1,65.8,4.1c60.3,4.3,99.2,1.9,120.7-2.7c27.4-5.9,35.4-17.2,39.8-24.7
			c7.7-13,9.7-32.2,0-48c-10.1-16.4-31.1-26.6-50.7-20.6c-16.9,5.2-35.3,23-30.2,42.5c4,15.3,21.4,26.8,41.1,24.7"/>
		<path class="st0" d="M79.7,247c30.9,0.2,101.8,2.2,115.9,2.1c30.7-0.2,44.5-0.6,56.2,9.6c1.9,1.6,14.6,13.1,13.7,30.2
			c-0.9,18.2-16.5,28.4-19.2,30.2c-1.2,0.8-21.4,13.6-39.8,4.1c-6.8-3.5-18.3-12.6-16.5-23.3c1.2-6.8,7.3-10.9,9.6-12.3"/>
		<path class="st0" d="M60.4,144.9c30.9-0.2,54.5-0.1,68.6,0c30.7,0.2,44.5,0.6,56.2-8.9c1.9-1.5,14.6-12.1,13.7-27.8
			C198,91.4,182.5,82,179.7,80.4c-1.2-0.7-21.4-12.5-39.8-3.8c-6.8,3.2-18.3,11.7-16.5,21.5"/>
	</g>
</g>
<g id="Ebene_2">
	<g id="Ebene_3">
		<path class="st1" d="M106.8,191c28.8,1.6,51.7,3.1,65.8,4.1c60.3,4.3,99.2,1.9,120.7-2.7c27.4-5.9,35.4-17.2,39.8-24.7
			c7.7-13,9.7-32.2,0-48c-10.1-16.4-31.1-26.6-50.7-20.6c-16.9,5.2-35.3,23-30.2,42.5c4,15.3,21.4,26.8,41.1,24.7"/>
		<path class="st1" d="M79.7,247c30.9,0.2,101.8,2.2,115.9,2.1c30.7-0.2,44.5-0.6,56.2,9.6c1.9,1.6,14.6,13.1,13.7,30.2
			c-0.9,18.2-16.5,28.4-19.2,30.2c-1.2,0.8-21.4,13.6-39.8,4.1c-6.8-3.5-18.3-12.6-16.5-23.3c1.2-6.8,7.3-10.9,9.6-12.3"/>
		<path class="st1" d="M60.4,144.9c30.9-0.2,54.5-0.1,68.6,0c30.7,0.2,44.5,0.6,56.2-8.9c1.9-1.5,14.6-12.1,13.7-27.8
			C198,91.4,182.5,82,179.7,80.4c-1.2-0.7-21.4-12.5-39.8-3.8c-6.8,3.2-18.3,11.7-16.5,21.5"/>
	</g>
</g>
</svg>
