<?xml version="1.0" encoding="utf-8"?>
<!-- Generator: Adobe Illustrator 27.9.4, SVG Export Plug-In . SVG Version: 9.03 Build 54784)  -->
<svg version="1.1" id="Ebene_1" xmlns="http://www.w3.org/2000/svg" xmlns:xlink="http://www.w3.org/1999/xlink" x="0px" y="0px"
	 viewBox="0 0 189 255" style="enable-background:new 0 0 189 255;" xml:space="preserve">
<style type="text/css">
	.st0{fill-rule:evenodd;clip-rule:evenodd;fill:url(#SVGID_1_);}
	.st1{fill-rule:evenodd;clip-rule:evenodd;fill:#FC9502;}
</style>
<g>
	
		<linearGradient id="SVGID_1_" gradientUnits="userSpaceOnUse" x1="94.1472" y1="67.1925" x2="94.1472" y2="190" gradientTransform="matrix(1 0 0 -1 0 256)">
		<stop  offset="0" style="stop-color:#FF4C0D"/>
		<stop  offset="1" style="stop-color:#FC9502"/>
	</linearGradient>
	<path class="st0" d="M139.3,145.4c-1,24.1-20.9,43.4-45.3,43.4c-25,0-45.3-21-45.3-45.3c0-3.3-0.1-9.8,4.8-20.7
		c2.9-6.6,4.8-10.7,5.8-14.5c0.6-2.1,1.7-5.4,4.8,0c1.9,3.2,1.9,7.7,1.9,7.7s6.9-5.3,11.6-15.4c6.8-14.8,1.4-23.7-0.5-29.9
		c-0.6-2.1-1-6,3.4-4.3c4.5,1.7,16.4,10,22.7,18.8c8.9,12.5,12,24.6,12,24.6s2.8-3.5,3.9-7.2c1.1-4.2,1.2-8.3,4.8-3.9
		c3.5,4.2,8.7,12.2,11.6,19.8C140.8,132.2,139.3,145.4,139.3,145.4L139.3,145.4z"/>
	<path class="st1" d="M94.1,188.8c-17.3,0-31.3-14-31.3-31.3c0-10.4,4.2-16.8,13-25.4c5.6-5.5,10.9-12.3,13.1-16.9
		c0.4-0.9,1.4-5.6,5.3-0.1c2,2.9,5.2,8.1,7.2,12.5c3.5,7.6,4.3,14.9,4.3,14.9s3.4-2,5.8-7.2c0.8-1.7,2.3-8,6.6-1.7
		c3.1,4.7,7.5,13,7.4,23.8C125.4,174.8,111.4,188.8,94.1,188.8L94.1,188.8z"/>
</g>
</svg>
