<?xml version="1.0" encoding="utf-8"?>
<!-- Generator: Adobe Illustrator 27.9.4, SVG Export Plug-In . SVG Version: 9.03 Build 54784)  -->
<svg version="1.1" xmlns="http://www.w3.org/2000/svg" xmlns:xlink="http://www.w3.org/1999/xlink" x="0px" y="0px"
	 viewBox="0 0 200 200" style="enable-background:new 0 0 200 200;" xml:space="preserve">
<style type="text/css">
	.st0{fill-rule:evenodd;clip-rule:evenodd;fill:#D7F7FF;}
	.st1{fill:#FFFFFF;}
	.st2{fill:#99ECFF;}
	.st3{fill-rule:evenodd;clip-rule:evenodd;fill:url(#SVGID_1_);}
	.st4{fill-rule:evenodd;clip-rule:evenodd;fill:#B0F0FF;}
	.st5{fill-rule:evenodd;clip-rule:evenodd;fill:#FFFFFF;}
</style>
<g id="Ebene_4">
</g>
<g id="Ebene_2">
	<g>
		<path class="st0" d="M88.7,188.5c-5.2-0.1-6.9-7.4-8.7-24c-0.1-1.3-0.3-2.4-0.3-3.4l-10.3,0.4c-1,5.1-2.7,9.8-6.4,9.8
			c-4.9-0.1-6.7-6.6-8.3-20.4l-14.9-16.6c-0.2-0.3-0.4-0.6-0.5-0.9l-12.9-42c-0.2-0.6-0.1-1.3,0.2-1.9l17.2-34.4L47,14
			c0.1-0.7,0.4-1.4,1-1.8c0.4-0.3,1-0.5,1.5-0.5c0.2,0,0.3,0,0.5,0l55.3,10.8l15-10c0.4-0.3,0.9-0.4,1.4-0.4c0.7,0,1.3,0.3,1.8,0.8
			L159,49.2c0.4,0.4,0.6,0.9,0.7,1.5l2.2,23.2l11.7,40.4c0.2,0.7,0.1,1.5-0.3,2.1l-22.4,34.3c-1.4,16.5-3.6,22.7-8.1,22.7
			c-4.3,0-6.1-5.2-7.5-14.2l-38.1,1.3c0,0.7-0.1,1.4-0.1,2.1C95.7,181.7,93.5,188.5,88.7,188.5C88.8,188.5,88.7,188.5,88.7,188.5z"
			/>
		<path class="st1" d="M49.5,14.2l56.3,11l15.9-10.6l35.5,36.3l2.3,23.4l11.7,40.6l-22.8,34.8c-0.7,8.7-2.1,21-5.6,21c0,0,0,0,0,0
			c-2.4,0-4-4.6-5.3-14.3L94.7,158c0,1.4,0,2.8-0.2,4.3c-0.6,8.5-2,23.7-5.8,23.7c0,0,0,0,0,0c-3,0-4.6-7-6.3-21.8
			c-0.2-2.1-0.4-4-0.4-5.7L67.2,159c-0.9,5.4-2.2,9.7-4.3,9.7c0,0,0,0,0,0c-2.8,0-4.4-6.1-5.9-19l-15.4-17.1l-12.9-42l17.4-34.8
			L49.5,14.2 M49.5,9.2c-1.1,0-2.1,0.4-3,1c-1.1,0.9-1.8,2.2-2,3.6l-3.3,40.6l-17,33.9c-0.6,1.1-0.7,2.5-0.3,3.7l12.9,42
			c0.2,0.7,0.6,1.3,1.1,1.9l14.4,16c0.8,6.3,1.6,10.5,2.5,13.6c1.6,5.4,4.4,8.2,8.2,8.2c0,0,0.1,0,0.1,0c5.2,0,7.4-5.3,8.5-9.9
			l6-0.2c0,0.4,0.1,0.7,0.1,1.1c0.9,8.2,1.8,13.5,2.8,17.2c0.6,2.2,2.5,9,8.4,9c0,0,0,0,0.1,0c6.7,0,8.3-8.9,9-12.7
			c0.9-4.9,1.4-10.8,1.8-15.4l33.7-1.2c1.2,6.9,3.3,14.1,9.6,14.2c0,0,0,0,0.1,0c6.4,0,8.1-8.2,8.8-11.2c0.7-3.3,1.3-7.5,1.7-13.1
			l22.1-33.8c0.8-1.2,1-2.7,0.6-4.1l-11.6-40.2l-2.2-23c-0.1-1.1-0.6-2.2-1.4-3l-35.5-36.3c-1-1-2.3-1.5-3.6-1.5
			c-1,0-1.9,0.3-2.8,0.8l-14.2,9.4L50.4,9.3C50.1,9.3,49.8,9.2,49.5,9.2L49.5,9.2z"/>
	</g>
</g>
<g id="Ebene_3">
	<g>
		<path class="st0" d="M88.9,184.3c-1.1,0-2.9-3.6-4.8-20.4c-0.3-2.3-0.4-4-0.4-5.6c0-0.4-0.2-0.8-0.5-1.1c-0.3-0.3-0.7-0.4-1-0.4
			c0,0-14.9,0.5-14.9,0.5c-0.7,0-1.3,0.5-1.4,1.3c-1.3,8-2.8,8.5-2.8,8.5c-0.9,0-2.6-2.3-4.5-17.7c0-0.3-0.2-0.6-0.4-0.8L43,131.6
			L30.4,90.5l17.1-34.2c0.1-0.2,0.1-0.4,0.2-0.5l3.3-39.9l54.7,10.6c0.1,0,0.2,0,0.3,0c0.3,0,0.6-0.1,0.8-0.3l14.8-9.9l34.3,35
			l2.2,22.9c0,0.1,0,0.2,0.1,0.3l11.5,40l-22.4,34.2c-0.1,0.2-0.2,0.5-0.2,0.7c-1.5,18.5-3.9,19.6-4.1,19.7c-0.5,0-2.2-1-3.8-13
			c-0.1-0.7-0.7-1.3-1.5-1.3c0,0-42.8,1.5-42.8,1.5c-0.8,0-1.5,0.7-1.4,1.5c0,1.4-0.1,2.9-0.1,4.1C91.7,182,89.5,184.1,88.9,184.3z"
			/>
		<path class="st2" d="M52.3,17.6l53,10.3c0.2,0,0.4,0.1,0.6,0.1c0.6,0,1.2-0.2,1.7-0.5l13.8-9.2l33.1,33.8l2.2,22.4
			c0,0.2,0.1,0.4,0.1,0.5l11.3,39.3L146,148c-0.3,0.4-0.4,0.9-0.5,1.4c-0.9,10.7-2,15.2-2.7,17.2c-0.6-1.4-1.4-4.4-2.3-10.6
			c-0.2-1.5-1.5-2.6-3-2.6c0,0-0.1,0-0.1,0l-42.8,1.5c-1.7,0.1-2.9,1.4-2.9,3.1c0,1.3-0.1,2.7-0.1,4c-0.9,12.5-2.1,17.7-2.9,19.8
			c-0.9-2.1-2-7-3.2-18.1c-0.2-1.8-0.4-3.8-0.4-5.4c0-0.8-0.3-1.6-0.9-2.2c-0.6-0.5-1.3-0.9-2.1-0.9c0,0-0.1,0-0.1,0l-14.8,0.5
			c-1.4,0-2.6,1.1-2.9,2.5c-0.5,3.2-1.1,5-1.5,6.1c-0.7-1.9-1.7-6-2.9-15.2c-0.1-0.6-0.3-1.2-0.7-1.6l-15-16.7L32,90.7L48.9,57
			c0.2-0.3,0.3-0.7,0.3-1.1L52.3,17.6 M49.6,14l-3.4,41.6L28.8,90.4l12.9,42l15.4,17.1c1.6,12.9,3.1,19,5.9,19c0,0,0,0,0,0
			c2.1,0,3.4-4.4,4.3-9.7l14.8-0.5c0,1.7,0.2,3.6,0.4,5.7c1.6,14.8,3.3,21.7,6.3,21.8c0,0,0,0,0,0c3.9,0,5.2-15.1,5.8-23.7
			c0.1-1.5,0.2-2.9,0.2-4.3l42.8-1.5c1.4,9.7,2.9,14.3,5.3,14.3c0,0,0,0,0,0c3.5,0,4.9-12.4,5.6-21l22.8-34.8l-11.7-40.6l-2.3-23.4
			l-35.5-36.3L105.9,25L49.6,14L49.6,14z"/>
	</g>
</g>
<g id="Ebene_1">
	<g>
		<linearGradient id="SVGID_1_" gradientUnits="userSpaceOnUse" x1="100.0942" y1="27.2706" x2="100.0942" y2="150.0884">
			<stop  offset="0" style="stop-color:#FFFFFF"/>
			<stop  offset="7.732391e-03" style="stop-color:#FBFEFF"/>
			<stop  offset="9.391451e-02" style="stop-color:#D7F7FF"/>
			<stop  offset="0.1877" style="stop-color:#B9F0FF"/>
			<stop  offset="0.2899" style="stop-color:#9FEBFF"/>
			<stop  offset="0.4034" style="stop-color:#8CE7FF"/>
			<stop  offset="0.5343" style="stop-color:#7EE4FF"/>
			<stop  offset="0.6983" style="stop-color:#76E2FF"/>
			<stop  offset="1" style="stop-color:#74E2FF"/>
		</linearGradient>
		<path class="st3" d="M145.3,106.7c-1,24.1-20.9,43.4-45.3,43.4c-25,0-45.3-21-45.3-45.3c0-3.3-0.1-9.8,4.8-20.7
			c2.9-6.6,4.8-10.7,5.8-14.5c0.6-2.1,1.7-5.4,4.8,0c1.9,3.2,1.9,7.7,1.9,7.7s6.9-5.3,11.6-15.4C90.4,47.1,85,38.2,83.1,32
			c-0.6-2.1-1-6,3.4-4.3c4.5,1.7,16.4,10,22.7,18.8c8.9,12.5,12,24.6,12,24.6s2.8-3.5,3.9-7.2c1.1-4.2,1.2-8.3,4.8-3.9
			c3.5,4.2,8.7,12.2,11.6,19.8C146.8,93.5,145.3,106.7,145.3,106.7L145.3,106.7z"/>
		<path class="st4" d="M100.1,150.1c-17.3,0-31.3-14-31.3-31.3c0-10.4,4.2-16.8,13-25.4c5.6-5.5,10.9-12.3,13.1-16.9
			c0.4-0.9,1.4-5.6,5.3-0.1c2,2.9,5.2,8.1,7.2,12.5c3.5,7.6,4.3,14.9,4.3,14.9s3.4-2,5.8-7.2c0.8-1.7,2.3-8,6.6-1.7
			c3.1,4.7,7.5,13,7.4,23.8C131.4,136.1,117.4,150.1,100.1,150.1L100.1,150.1z"/>
	</g>
	<polygon class="st5" points="73.7,93.1 90.2,69 73,46.2 55.7,69 	"/>
	<polygon class="st5" points="132.3,137.2 142.3,122.8 131.9,109.1 121.4,122.8 	"/>
</g>
</svg>
